<mxfile host="app.diagrams.net" agent="Mozilla/5.0 (Windows NT 10.0; Win64; x64) AppleWebKit/537.36 (KHTML, like Gecko) Chrome/130.0.0.0 Safari/537.36" version="24.8.2">
  <diagram id="Ht1M8jgEwFfnCIfOTk4-" name="Page-1">
    <mxGraphModel dx="1290" dy="565" grid="1" gridSize="10" guides="1" tooltips="1" connect="1" arrows="1" fold="1" page="1" pageScale="1" pageWidth="827" pageHeight="1169" math="0" shadow="0">
      <root>
        <mxCell id="0" />
        <mxCell id="1" parent="0" />
        <mxCell id="Eq8opbPziCKBlRDAoTjS-1" value="VPC" style="points=[[0,0],[0.25,0],[0.5,0],[0.75,0],[1,0],[1,0.25],[1,0.5],[1,0.75],[1,1],[0.75,1],[0.5,1],[0.25,1],[0,1],[0,0.75],[0,0.5],[0,0.25]];outlineConnect=0;gradientColor=none;html=1;whiteSpace=wrap;fontSize=12;fontStyle=0;container=1;pointerEvents=0;collapsible=0;recursiveResize=0;shape=mxgraph.aws4.group;grIcon=mxgraph.aws4.group_vpc2;strokeColor=#8C4FFF;fillColor=none;verticalAlign=top;align=left;spacingLeft=30;fontColor=#AAB7B8;dashed=0;" parent="1" vertex="1">
          <mxGeometry x="140" y="20" width="705" height="610" as="geometry" />
        </mxCell>
        <mxCell id="Eq8opbPziCKBlRDAoTjS-4" value="us-east-1b" style="sketch=0;outlineConnect=0;gradientColor=none;html=1;whiteSpace=wrap;fontSize=12;fontStyle=0;shape=mxgraph.aws4.group;grIcon=mxgraph.aws4.group_availability_zone;strokeColor=#545B64;fillColor=none;verticalAlign=top;align=left;spacingLeft=30;fontColor=#545B64;dashed=1;" parent="Eq8opbPziCKBlRDAoTjS-1" vertex="1">
          <mxGeometry x="180" y="330" width="437" height="190" as="geometry" />
        </mxCell>
        <mxCell id="Eq8opbPziCKBlRDAoTjS-5" value="us-east-1a" style="sketch=0;outlineConnect=0;gradientColor=none;html=1;whiteSpace=wrap;fontSize=12;fontStyle=0;shape=mxgraph.aws4.group;grIcon=mxgraph.aws4.group_availability_zone;strokeColor=#545B64;fillColor=none;verticalAlign=top;align=left;spacingLeft=30;fontColor=#545B64;dashed=1;" parent="Eq8opbPziCKBlRDAoTjS-1" vertex="1">
          <mxGeometry x="180" y="70" width="439" height="190" as="geometry" />
        </mxCell>
        <mxCell id="Eq8opbPziCKBlRDAoTjS-20" style="edgeStyle=orthogonalEdgeStyle;rounded=0;orthogonalLoop=1;jettySize=auto;html=1;" parent="Eq8opbPziCKBlRDAoTjS-1" source="Eq8opbPziCKBlRDAoTjS-14" target="Eq8opbPziCKBlRDAoTjS-17" edge="1">
          <mxGeometry relative="1" as="geometry" />
        </mxCell>
        <mxCell id="Eq8opbPziCKBlRDAoTjS-14" value="" style="outlineConnect=0;dashed=0;verticalLabelPosition=bottom;verticalAlign=top;align=center;html=1;shape=mxgraph.aws3.application_load_balancer;fillColor=#F58534;gradientColor=none;" parent="Eq8opbPziCKBlRDAoTjS-1" vertex="1">
          <mxGeometry x="80" y="282" width="40" height="40" as="geometry" />
        </mxCell>
        <mxCell id="wla_5sqD304tsg3NQUoW-23" style="edgeStyle=orthogonalEdgeStyle;rounded=0;orthogonalLoop=1;jettySize=auto;html=1;" edge="1" parent="Eq8opbPziCKBlRDAoTjS-1" source="Eq8opbPziCKBlRDAoTjS-17" target="wla_5sqD304tsg3NQUoW-13">
          <mxGeometry relative="1" as="geometry">
            <Array as="points">
              <mxPoint x="50" y="302" />
              <mxPoint x="50" y="170" />
            </Array>
          </mxGeometry>
        </mxCell>
        <mxCell id="wla_5sqD304tsg3NQUoW-24" style="edgeStyle=orthogonalEdgeStyle;rounded=0;orthogonalLoop=1;jettySize=auto;html=1;" edge="1" parent="Eq8opbPziCKBlRDAoTjS-1" source="Eq8opbPziCKBlRDAoTjS-17" target="wla_5sqD304tsg3NQUoW-14">
          <mxGeometry relative="1" as="geometry">
            <Array as="points">
              <mxPoint x="50" y="302" />
              <mxPoint x="50" y="430" />
            </Array>
          </mxGeometry>
        </mxCell>
        <mxCell id="Eq8opbPziCKBlRDAoTjS-17" value="" style="sketch=0;outlineConnect=0;fontColor=#232F3E;gradientColor=none;fillColor=#8C4FFF;strokeColor=none;dashed=0;verticalLabelPosition=bottom;verticalAlign=top;align=center;html=1;fontSize=12;fontStyle=0;aspect=fixed;pointerEvents=1;shape=mxgraph.aws4.internet_gateway;" parent="Eq8opbPziCKBlRDAoTjS-1" vertex="1">
          <mxGeometry x="-20" y="280" width="44" height="44" as="geometry" />
        </mxCell>
        <mxCell id="Eq8opbPziCKBlRDAoTjS-18" style="edgeStyle=orthogonalEdgeStyle;rounded=0;orthogonalLoop=1;jettySize=auto;html=1;entryX=0;entryY=0.5;entryDx=0;entryDy=0;entryPerimeter=0;" parent="Eq8opbPziCKBlRDAoTjS-1" source="Eq8opbPziCKBlRDAoTjS-17" target="Eq8opbPziCKBlRDAoTjS-14" edge="1">
          <mxGeometry relative="1" as="geometry" />
        </mxCell>
        <mxCell id="Eq8opbPziCKBlRDAoTjS-19" value="Internet Gatway" style="text;html=1;align=center;verticalAlign=middle;resizable=0;points=[];autosize=1;strokeColor=none;fillColor=none;" parent="Eq8opbPziCKBlRDAoTjS-1" vertex="1">
          <mxGeometry y="268" width="110" height="30" as="geometry" />
        </mxCell>
        <mxCell id="wla_5sqD304tsg3NQUoW-1" value="Public subnet-1" style="points=[[0,0],[0.25,0],[0.5,0],[0.75,0],[1,0],[1,0.25],[1,0.5],[1,0.75],[1,1],[0.75,1],[0.5,1],[0.25,1],[0,1],[0,0.75],[0,0.5],[0,0.25]];outlineConnect=0;gradientColor=none;html=1;whiteSpace=wrap;fontSize=12;fontStyle=0;container=1;pointerEvents=0;collapsible=0;recursiveResize=0;shape=mxgraph.aws4.group;grIcon=mxgraph.aws4.group_security_group;grStroke=0;strokeColor=#7AA116;fillColor=#F2F6E8;verticalAlign=top;align=left;spacingLeft=30;fontColor=#248814;dashed=0;" vertex="1" parent="Eq8opbPziCKBlRDAoTjS-1">
          <mxGeometry x="210" y="110" width="170" height="110" as="geometry" />
        </mxCell>
        <mxCell id="wla_5sqD304tsg3NQUoW-13" value="Bastion-host" style="outlineConnect=0;dashed=0;verticalLabelPosition=bottom;verticalAlign=top;align=center;html=1;shape=mxgraph.aws3.ec2;fillColor=#F58534;gradientColor=none;" vertex="1" parent="wla_5sqD304tsg3NQUoW-1">
          <mxGeometry x="50" y="27.5" width="70" height="55" as="geometry" />
        </mxCell>
        <mxCell id="wla_5sqD304tsg3NQUoW-5" value="Private subnet-2" style="points=[[0,0],[0.25,0],[0.5,0],[0.75,0],[1,0],[1,0.25],[1,0.5],[1,0.75],[1,1],[0.75,1],[0.5,1],[0.25,1],[0,1],[0,0.75],[0,0.5],[0,0.25]];outlineConnect=0;gradientColor=none;html=1;whiteSpace=wrap;fontSize=12;fontStyle=0;container=1;pointerEvents=0;collapsible=0;recursiveResize=0;shape=mxgraph.aws4.group;grIcon=mxgraph.aws4.group_security_group;grStroke=0;strokeColor=#00A4A6;fillColor=#E6F6F7;verticalAlign=top;align=left;spacingLeft=30;fontColor=#147EBA;dashed=0;" vertex="1" parent="Eq8opbPziCKBlRDAoTjS-1">
          <mxGeometry x="424" y="370" width="176" height="110" as="geometry" />
        </mxCell>
        <mxCell id="wla_5sqD304tsg3NQUoW-9" value="Web Server 2" style="outlineConnect=0;dashed=0;verticalLabelPosition=bottom;verticalAlign=top;align=center;html=1;shape=mxgraph.aws3.ec2;fillColor=#F58534;gradientColor=none;" vertex="1" parent="wla_5sqD304tsg3NQUoW-5">
          <mxGeometry x="66" y="27.5" width="64" height="55" as="geometry" />
        </mxCell>
        <mxCell id="wla_5sqD304tsg3NQUoW-6" value="Public subnet-2" style="points=[[0,0],[0.25,0],[0.5,0],[0.75,0],[1,0],[1,0.25],[1,0.5],[1,0.75],[1,1],[0.75,1],[0.5,1],[0.25,1],[0,1],[0,0.75],[0,0.5],[0,0.25]];outlineConnect=0;gradientColor=none;html=1;whiteSpace=wrap;fontSize=12;fontStyle=0;container=1;pointerEvents=0;collapsible=0;recursiveResize=0;shape=mxgraph.aws4.group;grIcon=mxgraph.aws4.group_security_group;grStroke=0;strokeColor=#7AA116;fillColor=#F2F6E8;verticalAlign=top;align=left;spacingLeft=30;fontColor=#248814;dashed=0;" vertex="1" parent="Eq8opbPziCKBlRDAoTjS-1">
          <mxGeometry x="210" y="370" width="170" height="110" as="geometry" />
        </mxCell>
        <mxCell id="wla_5sqD304tsg3NQUoW-7" value="Private subnet-1" style="points=[[0,0],[0.25,0],[0.5,0],[0.75,0],[1,0],[1,0.25],[1,0.5],[1,0.75],[1,1],[0.75,1],[0.5,1],[0.25,1],[0,1],[0,0.75],[0,0.5],[0,0.25]];outlineConnect=0;gradientColor=none;html=1;whiteSpace=wrap;fontSize=12;fontStyle=0;container=1;pointerEvents=0;collapsible=0;recursiveResize=0;shape=mxgraph.aws4.group;grIcon=mxgraph.aws4.group_security_group;grStroke=0;strokeColor=#00A4A6;fillColor=#E6F6F7;verticalAlign=top;align=left;spacingLeft=30;fontColor=#147EBA;dashed=0;" vertex="1" parent="Eq8opbPziCKBlRDAoTjS-1">
          <mxGeometry x="424" y="110" width="176" height="110" as="geometry" />
        </mxCell>
        <mxCell id="wla_5sqD304tsg3NQUoW-8" value="Web Server 1" style="outlineConnect=0;dashed=0;verticalLabelPosition=bottom;verticalAlign=top;align=center;html=1;shape=mxgraph.aws3.ec2;fillColor=#F58534;gradientColor=none;" vertex="1" parent="wla_5sqD304tsg3NQUoW-7">
          <mxGeometry x="66" y="25" width="64" height="55" as="geometry" />
        </mxCell>
        <mxCell id="wla_5sqD304tsg3NQUoW-10" value="Security Group" style="rounded=1;arcSize=10;dashed=1;strokeColor=#ff0000;fillColor=none;gradientColor=none;dashPattern=8 4;strokeWidth=2;" vertex="1" parent="Eq8opbPziCKBlRDAoTjS-1">
          <mxGeometry x="480" y="130" width="90" height="340" as="geometry" />
        </mxCell>
        <mxCell id="wla_5sqD304tsg3NQUoW-11" value="" style="rounded=1;arcSize=10;dashed=1;fillColor=none;gradientColor=none;dashPattern=8 3 1 3;strokeWidth=2;" vertex="1" parent="Eq8opbPziCKBlRDAoTjS-1">
          <mxGeometry x="470" y="110" width="110" height="370" as="geometry" />
        </mxCell>
        <mxCell id="wla_5sqD304tsg3NQUoW-12" value="Auto Scaling Group" style="text;html=1;align=center;verticalAlign=middle;resizable=0;points=[];autosize=1;strokeColor=none;fillColor=none;" vertex="1" parent="Eq8opbPziCKBlRDAoTjS-1">
          <mxGeometry x="460" y="80" width="130" height="30" as="geometry" />
        </mxCell>
        <mxCell id="wla_5sqD304tsg3NQUoW-14" value="Nat-Gatway" style="sketch=0;outlineConnect=0;fontColor=#232F3E;gradientColor=none;fillColor=#8C4FFF;strokeColor=none;dashed=0;verticalLabelPosition=bottom;verticalAlign=top;align=center;html=1;fontSize=12;fontStyle=0;aspect=fixed;pointerEvents=1;shape=mxgraph.aws4.nat_gateway;" vertex="1" parent="Eq8opbPziCKBlRDAoTjS-1">
          <mxGeometry x="274" y="397.5" width="57" height="57" as="geometry" />
        </mxCell>
        <mxCell id="wla_5sqD304tsg3NQUoW-17" style="edgeStyle=orthogonalEdgeStyle;rounded=0;orthogonalLoop=1;jettySize=auto;html=1;entryX=0.273;entryY=0.162;entryDx=0;entryDy=0;entryPerimeter=0;" edge="1" parent="Eq8opbPziCKBlRDAoTjS-1" source="Eq8opbPziCKBlRDAoTjS-14" target="wla_5sqD304tsg3NQUoW-11">
          <mxGeometry relative="1" as="geometry">
            <Array as="points">
              <mxPoint x="400" y="300" />
              <mxPoint x="400" y="170" />
            </Array>
          </mxGeometry>
        </mxCell>
        <mxCell id="wla_5sqD304tsg3NQUoW-18" style="edgeStyle=orthogonalEdgeStyle;rounded=0;orthogonalLoop=1;jettySize=auto;html=1;entryX=0.364;entryY=0.865;entryDx=0;entryDy=0;entryPerimeter=0;" edge="1" parent="Eq8opbPziCKBlRDAoTjS-1" target="wla_5sqD304tsg3NQUoW-11">
          <mxGeometry relative="1" as="geometry">
            <mxPoint x="110" y="298" as="sourcePoint" />
            <mxPoint x="510.04999999999995" y="426.04999999999995" as="targetPoint" />
            <Array as="points">
              <mxPoint x="400" y="298" />
              <mxPoint x="400" y="430" />
            </Array>
          </mxGeometry>
        </mxCell>
        <mxCell id="Eq8opbPziCKBlRDAoTjS-22" style="edgeStyle=orthogonalEdgeStyle;rounded=0;orthogonalLoop=1;jettySize=auto;html=1;" parent="1" source="Eq8opbPziCKBlRDAoTjS-21" target="Eq8opbPziCKBlRDAoTjS-17" edge="1">
          <mxGeometry relative="1" as="geometry" />
        </mxCell>
        <mxCell id="Eq8opbPziCKBlRDAoTjS-21" value="" style="image;aspect=fixed;perimeter=ellipsePerimeter;html=1;align=center;shadow=0;dashed=0;spacingTop=3;image=img/lib/active_directory/internet_cloud.svg;" parent="1" vertex="1">
          <mxGeometry y="302" width="63.49" height="40" as="geometry" />
        </mxCell>
        <mxCell id="Eq8opbPziCKBlRDAoTjS-23" style="edgeStyle=orthogonalEdgeStyle;rounded=0;orthogonalLoop=1;jettySize=auto;html=1;entryX=1;entryY=0.5;entryDx=0;entryDy=0;" parent="1" source="Eq8opbPziCKBlRDAoTjS-17" target="Eq8opbPziCKBlRDAoTjS-21" edge="1">
          <mxGeometry relative="1" as="geometry" />
        </mxCell>
        <mxCell id="Eq8opbPziCKBlRDAoTjS-24" value="Internet" style="text;html=1;align=center;verticalAlign=middle;resizable=0;points=[];autosize=1;strokeColor=none;fillColor=none;" parent="1" vertex="1">
          <mxGeometry x="20" y="288" width="60" height="30" as="geometry" />
        </mxCell>
      </root>
    </mxGraphModel>
  </diagram>
</mxfile>
